<svg width="1080" height="1080" viewBox="0 0 1080 1080" fill="none" xmlns="http://www.w3.org/2000/svg">
<rect width="1080" height="1080" rx="100" fill="#D2CCC0"/>
<path d="M612.402 189.877C613.354 190.761 614.239 191.645 615.123 192.598C658.056 236.441 681.98 295.432 681.713 356.79C681.445 418.147 657.008 476.928 613.694 520.395L613.286 520.871L816.504 724.325L895.56 803.366L944 851.798L864.944 930.771L816.504 882.407L739.898 959L660.842 879.959L737.448 803.366L695.676 761.601L607.231 850.029L528.38 770.784L616.824 682.355L533.958 599.913L533.482 600.321C489.816 643.979 430.593 668.506 368.84 668.506C307.087 668.506 247.863 643.979 204.197 600.321C160.531 556.663 136 497.45 136 435.708C136 373.966 160.531 314.753 204.197 271.095L284.137 191.169C327.639 147.742 386.531 123.244 448.004 123.002C509.477 122.76 568.559 146.794 612.402 189.877V189.877ZM553.28 355.782C553.329 342.063 550.667 328.469 545.448 315.78C540.23 303.092 532.556 291.559 522.869 281.842V281.842C503.182 262.319 476.576 251.365 448.848 251.365C421.119 251.365 394.514 262.319 374.827 281.842L294.819 361.7C275.859 381.465 265.401 407.871 265.687 435.255C265.973 462.639 276.981 488.821 296.349 508.186C315.717 527.55 341.903 538.556 369.292 538.842C396.682 539.128 423.092 528.672 442.861 509.716L522.801 429.79C532.5 420.064 540.184 408.521 545.414 395.822C550.645 383.122 553.318 369.516 553.28 355.782V355.782Z" fill="#1F1F1F"/>
</svg>
